<svg width="10.958in" height="6.236in" viewBox="0 0 10.958 6.236" xmlns="http://www.w3.org/2000/svg" version="1.1" preserveAspectRatio="xMidYMid meet"><g id="svgGroup" stroke-linecap="round" fill-rule="evenodd" font-size="9pt" stroke="#000" stroke-width="0.25mm" fill="none" style="stroke:#000;stroke-width:0.25mm;fill:none"><path d="M 0 5.118 L 0 5.434 L 0.118 5.434 L 0.118 5.92 L 0 5.92 L 0 6.236 L 0.388 6.236 L 0.388 6.118 L 0.875 6.118 L 0.875 6.236 L 1.361 6.236 L 1.361 6.118 L 1.848 6.118 L 1.848 6.236 L 2.236 6.236 L 2.236 5.92 L 2.118 5.92 L 2.118 5.434 L 2.236 5.434 L 2.236 5.118 L 0 5.118 Z" id="front_outsideCutPath" stroke="#FF0000" stroke-width="0.1" style="stroke:#FF0000;stroke-width:0.1" vector-effect="non-scaling-stroke"/><path d="M 2.479 5.118 L 2.479 5.434 L 2.361 5.434 L 2.361 5.92 L 2.479 5.92 L 2.479 6.236 L 2.802 6.236 L 2.802 6.118 L 3.289 6.118 L 3.289 6.236 L 3.775 6.236 L 3.775 6.118 L 4.262 6.118 L 4.262 6.236 L 4.749 6.236 L 4.749 6.118 L 5.236 6.118 L 5.236 6.236 L 5.722 6.236 L 5.722 6.118 L 6.209 6.118 L 6.209 6.236 L 6.696 6.236 L 6.696 6.118 L 7.183 6.118 L 7.183 6.236 L 7.669 6.236 L 7.669 6.118 L 8.156 6.118 L 8.156 6.236 L 8.479 6.236 L 8.479 5.92 L 8.597 5.92 L 8.597 5.434 L 8.479 5.434 L 8.479 5.118 L 2.479 5.118 Z" id="left_outsideCutPath" stroke="#FF0000" stroke-width="0.1" style="stroke:#FF0000;stroke-width:0.1" vector-effect="non-scaling-stroke"/><path d="M 0 3.875 L 0 4.191 L 0.118 4.191 L 0.118 4.677 L 0 4.677 L 0 4.993 L 0.388 4.993 L 0.388 4.875 L 0.875 4.875 L 0.875 4.993 L 1.361 4.993 L 1.361 4.875 L 1.848 4.875 L 1.848 4.993 L 2.236 4.993 L 2.236 4.677 L 2.118 4.677 L 2.118 4.191 L 2.236 4.191 L 2.236 3.875 L 0 3.875 Z" id="back_outsideCutPath" stroke="#FF0000" stroke-width="0.1" style="stroke:#FF0000;stroke-width:0.1" vector-effect="non-scaling-stroke"/><path d="M 2.479 3.875 L 2.479 4.191 L 2.361 4.191 L 2.361 4.677 L 2.479 4.677 L 2.479 4.993 L 2.802 4.993 L 2.802 4.875 L 3.289 4.875 L 3.289 4.993 L 3.775 4.993 L 3.775 4.875 L 4.262 4.875 L 4.262 4.993 L 4.749 4.993 L 4.749 4.875 L 5.236 4.875 L 5.236 4.993 L 5.722 4.993 L 5.722 4.875 L 6.209 4.875 L 6.209 4.993 L 6.696 4.993 L 6.696 4.875 L 7.183 4.875 L 7.183 4.993 L 7.669 4.993 L 7.669 4.875 L 8.156 4.875 L 8.156 4.993 L 8.479 4.993 L 8.479 4.677 L 8.597 4.677 L 8.597 4.191 L 8.479 4.191 L 8.479 3.875 L 2.479 3.875 Z" id="right_outsideCutPath" stroke="#FF0000" stroke-width="0.1" style="stroke:#FF0000;stroke-width:0.1" vector-effect="non-scaling-stroke"/><path d="M 8.84 0.118 L 8.84 0.441 L 8.722 0.441 L 8.722 0.928 L 8.84 0.928 L 8.84 1.414 L 8.722 1.414 L 8.722 1.901 L 8.84 1.901 L 8.84 2.388 L 8.722 2.388 L 8.722 2.875 L 8.84 2.875 L 8.84 3.361 L 8.722 3.361 L 8.722 3.848 L 8.84 3.848 L 8.84 4.335 L 8.722 4.335 L 8.722 4.822 L 8.84 4.822 L 8.84 5.308 L 8.722 5.308 L 8.722 5.795 L 8.84 5.795 L 8.84 6.118 L 9.11 6.118 L 9.11 6.236 L 9.597 6.236 L 9.597 6.118 L 10.083 6.118 L 10.083 6.236 L 10.57 6.236 L 10.57 6.118 L 10.84 6.118 L 10.84 5.795 L 10.958 5.795 L 10.958 5.308 L 10.84 5.308 L 10.84 4.822 L 10.958 4.822 L 10.958 4.335 L 10.84 4.335 L 10.84 3.848 L 10.958 3.848 L 10.958 3.361 L 10.84 3.361 L 10.84 2.875 L 10.958 2.875 L 10.958 2.388 L 10.84 2.388 L 10.84 1.901 L 10.958 1.901 L 10.958 1.414 L 10.84 1.414 L 10.84 0.928 L 10.958 0.928 L 10.958 0.441 L 10.84 0.441 L 10.84 0.118 L 10.57 0.118 L 10.57 0 L 10.083 0 L 10.083 0.118 L 9.597 0.118 L 9.597 0 L 9.11 0 L 9.11 0.118 L 8.84 0.118 Z" id="bottom_outsideCutPath" stroke="#FF0000" stroke-width="0.1" style="stroke:#FF0000;stroke-width:0.1" vector-effect="non-scaling-stroke"/></g></svg>