<svg width="6.25in" height="4.125in" viewBox="0 0 6.25 4.125" xmlns="http://www.w3.org/2000/svg" version="1.1" preserveAspectRatio="xMidYMid meet"><g id="svgGroup" stroke-linecap="round" fill-rule="evenodd" font-size="9pt" stroke="#000" stroke-width="0.25mm" fill="none" style="stroke:#000;stroke-width:0.25mm;fill:none"><path d="M 0 2.125 L 0 2.786 L 0.118 2.786 L 0.118 3.464 L 0 3.464 L 0 4.125 L 0.661 4.125 L 0.661 4.007 L 1.339 4.007 L 1.339 4.125 L 2 4.125 L 2 3.464 L 1.882 3.464 L 1.882 2.786 L 2 2.786 L 2 2.125 L 1.339 2.125 L 1.339 2.243 L 0.661 2.243 L 0.661 2.125 L 0 2.125 Z" id="front_outsideCutPath" stroke="#FF0000" stroke-width="0.1" style="stroke:#FF0000;stroke-width:0.1" vector-effect="non-scaling-stroke"/><path d="M 2.243 2.125 L 2.243 2.786 L 2.125 2.786 L 2.125 3.464 L 2.243 3.464 L 2.243 4.125 L 2.786 4.125 L 2.786 4.007 L 3.464 4.007 L 3.464 4.125 L 4.007 4.125 L 4.007 3.464 L 4.125 3.464 L 4.125 2.786 L 4.007 2.786 L 4.007 2.125 L 3.464 2.125 L 3.464 2.243 L 2.786 2.243 L 2.786 2.125 L 2.243 2.125 Z" id="left_outsideCutPath" stroke="#FF0000" stroke-width="0.1" style="stroke:#FF0000;stroke-width:0.1" vector-effect="non-scaling-stroke"/><path d="M 4.368 2.243 L 4.368 2.786 L 4.25 2.786 L 4.25 3.464 L 4.368 3.464 L 4.368 4.007 L 4.911 4.007 L 4.911 4.125 L 5.589 4.125 L 5.589 4.007 L 6.132 4.007 L 6.132 3.464 L 6.25 3.464 L 6.25 2.786 L 6.132 2.786 L 6.132 2.243 L 5.589 2.243 L 5.589 2.125 L 4.911 2.125 L 4.911 2.243 L 4.368 2.243 Z" id="top_outsideCutPath" stroke="#FF0000" stroke-width="0.1" style="stroke:#FF0000;stroke-width:0.1" vector-effect="non-scaling-stroke"/><path d="M 0 0 L 0 0.661 L 0.118 0.661 L 0.118 1.339 L 0 1.339 L 0 2 L 0.661 2 L 0.661 1.882 L 1.339 1.882 L 1.339 2 L 2 2 L 2 1.339 L 1.882 1.339 L 1.882 0.661 L 2 0.661 L 2 0 L 1.339 0 L 1.339 0.118 L 0.661 0.118 L 0.661 0 L 0 0 Z" id="back_outsideCutPath" stroke="#FF0000" stroke-width="0.1" style="stroke:#FF0000;stroke-width:0.1" vector-effect="non-scaling-stroke"/><path d="M 2.243 0 L 2.243 0.661 L 2.125 0.661 L 2.125 1.339 L 2.243 1.339 L 2.243 2 L 2.786 2 L 2.786 1.882 L 3.464 1.882 L 3.464 2 L 4.007 2 L 4.007 1.339 L 4.125 1.339 L 4.125 0.661 L 4.007 0.661 L 4.007 0 L 3.464 0 L 3.464 0.118 L 2.786 0.118 L 2.786 0 L 2.243 0 Z" id="right_outsideCutPath" stroke="#FF0000" stroke-width="0.1" style="stroke:#FF0000;stroke-width:0.1" vector-effect="non-scaling-stroke"/><path d="M 4.368 0.118 L 4.368 0.661 L 4.25 0.661 L 4.25 1.339 L 4.368 1.339 L 4.368 1.882 L 4.911 1.882 L 4.911 2 L 5.589 2 L 5.589 1.882 L 6.132 1.882 L 6.132 1.339 L 6.25 1.339 L 6.25 0.661 L 6.132 0.661 L 6.132 0.118 L 5.589 0.118 L 5.589 0 L 4.911 0 L 4.911 0.118 L 4.368 0.118 Z" id="bottom_outsideCutPath" stroke="#FF0000" stroke-width="0.1" style="stroke:#FF0000;stroke-width:0.1" vector-effect="non-scaling-stroke"/></g></svg>