<svg width="9.958in" height="6.597in" viewBox="0 0 9.958 6.597" xmlns="http://www.w3.org/2000/svg" version="1.1" preserveAspectRatio="xMidYMid meet"><g id="svgGroup" stroke-linecap="round" fill-rule="evenodd" font-size="9pt" stroke="#000" stroke-width="0.25mm" fill="none" style="stroke:#000;stroke-width:0.25mm;fill:none"><path d="M 0 3.361 L 0 3.917 L 0.118 3.917 L 0.118 4.625 L 0 4.625 L 0 5.333 L 0.118 5.333 L 0.118 6.041 L 0 6.041 L 0 6.597 L 0.556 6.597 L 0.556 6.479 L 1.264 6.479 L 1.264 6.597 L 1.972 6.597 L 1.972 6.479 L 2.68 6.479 L 2.68 6.597 L 3.236 6.597 L 3.236 6.041 L 3.118 6.041 L 3.118 5.333 L 3.236 5.333 L 3.236 4.625 L 3.118 4.625 L 3.118 3.917 L 3.236 3.917 L 3.236 3.361 L 2.68 3.361 L 2.68 3.479 L 1.972 3.479 L 1.972 3.361 L 1.264 3.361 L 1.264 3.479 L 0.556 3.479 L 0.556 3.361 L 0 3.361 Z" id="front_outsideCutPath" stroke="#FF0000" stroke-width="0.1" style="stroke:#FF0000;stroke-width:0.1" vector-effect="non-scaling-stroke"/><path d="M 3.479 3.361 L 3.479 3.917 L 3.361 3.917 L 3.361 4.625 L 3.479 4.625 L 3.479 5.333 L 3.361 5.333 L 3.361 6.041 L 3.479 6.041 L 3.479 6.597 L 3.917 6.597 L 3.917 6.479 L 4.625 6.479 L 4.625 6.597 L 5.333 6.597 L 5.333 6.479 L 6.041 6.479 L 6.041 6.597 L 6.479 6.597 L 6.479 6.041 L 6.597 6.041 L 6.597 5.333 L 6.479 5.333 L 6.479 4.625 L 6.597 4.625 L 6.597 3.917 L 6.479 3.917 L 6.479 3.361 L 6.041 3.361 L 6.041 3.479 L 5.333 3.479 L 5.333 3.361 L 4.625 3.361 L 4.625 3.479 L 3.917 3.479 L 3.917 3.361 L 3.479 3.361 Z" id="left_outsideCutPath" stroke="#FF0000" stroke-width="0.1" style="stroke:#FF0000;stroke-width:0.1" vector-effect="non-scaling-stroke"/><path d="M 6.84 3.479 L 6.84 3.917 L 6.722 3.917 L 6.722 4.625 L 6.84 4.625 L 6.84 5.333 L 6.722 5.333 L 6.722 6.041 L 6.84 6.041 L 6.84 6.479 L 7.278 6.479 L 7.278 6.597 L 7.986 6.597 L 7.986 6.479 L 8.694 6.479 L 8.694 6.597 L 9.402 6.597 L 9.402 6.479 L 9.84 6.479 L 9.84 6.041 L 9.958 6.041 L 9.958 5.333 L 9.84 5.333 L 9.84 4.625 L 9.958 4.625 L 9.958 3.917 L 9.84 3.917 L 9.84 3.479 L 9.402 3.479 L 9.402 3.361 L 8.694 3.361 L 8.694 3.479 L 7.986 3.479 L 7.986 3.361 L 7.278 3.361 L 7.278 3.479 L 6.84 3.479 Z" id="top_outsideCutPath" stroke="#FF0000" stroke-width="0.1" style="stroke:#FF0000;stroke-width:0.1" vector-effect="non-scaling-stroke"/><path d="M 0 0 L 0 0.556 L 0.118 0.556 L 0.118 1.264 L 0 1.264 L 0 1.972 L 0.118 1.972 L 0.118 2.68 L 0 2.68 L 0 3.236 L 0.556 3.236 L 0.556 3.118 L 1.264 3.118 L 1.264 3.236 L 1.972 3.236 L 1.972 3.118 L 2.68 3.118 L 2.68 3.236 L 3.236 3.236 L 3.236 2.68 L 3.118 2.68 L 3.118 1.972 L 3.236 1.972 L 3.236 1.264 L 3.118 1.264 L 3.118 0.556 L 3.236 0.556 L 3.236 0 L 2.68 0 L 2.68 0.118 L 1.972 0.118 L 1.972 0 L 1.264 0 L 1.264 0.118 L 0.556 0.118 L 0.556 0 L 0 0 Z" id="back_outsideCutPath" stroke="#FF0000" stroke-width="0.1" style="stroke:#FF0000;stroke-width:0.1" vector-effect="non-scaling-stroke"/><path d="M 3.479 0 L 3.479 0.556 L 3.361 0.556 L 3.361 1.264 L 3.479 1.264 L 3.479 1.972 L 3.361 1.972 L 3.361 2.68 L 3.479 2.68 L 3.479 3.236 L 3.917 3.236 L 3.917 3.118 L 4.625 3.118 L 4.625 3.236 L 5.333 3.236 L 5.333 3.118 L 6.041 3.118 L 6.041 3.236 L 6.479 3.236 L 6.479 2.68 L 6.597 2.68 L 6.597 1.972 L 6.479 1.972 L 6.479 1.264 L 6.597 1.264 L 6.597 0.556 L 6.479 0.556 L 6.479 0 L 6.041 0 L 6.041 0.118 L 5.333 0.118 L 5.333 0 L 4.625 0 L 4.625 0.118 L 3.917 0.118 L 3.917 0 L 3.479 0 Z" id="right_outsideCutPath" stroke="#FF0000" stroke-width="0.1" style="stroke:#FF0000;stroke-width:0.1" vector-effect="non-scaling-stroke"/><path d="M 6.84 0.118 L 6.84 0.556 L 6.722 0.556 L 6.722 1.264 L 6.84 1.264 L 6.84 1.972 L 6.722 1.972 L 6.722 2.68 L 6.84 2.68 L 6.84 3.118 L 7.278 3.118 L 7.278 3.236 L 7.986 3.236 L 7.986 3.118 L 8.694 3.118 L 8.694 3.236 L 9.402 3.236 L 9.402 3.118 L 9.84 3.118 L 9.84 2.68 L 9.958 2.68 L 9.958 1.972 L 9.84 1.972 L 9.84 1.264 L 9.958 1.264 L 9.958 0.556 L 9.84 0.556 L 9.84 0.118 L 9.402 0.118 L 9.402 0 L 8.694 0 L 8.694 0.118 L 7.986 0.118 L 7.986 0 L 7.278 0 L 7.278 0.118 L 6.84 0.118 Z" id="bottom_outsideCutPath" stroke="#FF0000" stroke-width="0.1" style="stroke:#FF0000;stroke-width:0.1" vector-effect="non-scaling-stroke"/></g></svg>